<?xml version="1.0" encoding="utf-8"?>
<!-- Generator: Adobe Illustrator 27.4.0, SVG Export Plug-In . SVG Version: 6.00 Build 0)  -->
<svg version="1.1" xmlns="http://www.w3.org/2000/svg" xmlns:xlink="http://www.w3.org/1999/xlink" x="0px" y="0px"
	 viewBox="0 0 1040 500" style="enable-background:new 0 0 1040 500;" xml:space="preserve">
<style type="text/css">
	.st0{display:none;}
	.st1{display:inline;fill:#310752;}
	
		.st2{display:none;clip-path:url(#SVGID_00000150101841132236701290000007109193313409442197_);fill:none;stroke:#FFFFFF;stroke-width:0.9776;stroke-miterlimit:10;}
	.st3{clip-path:url(#SVGID_00000150101841132236701290000007109193313409442197_);}
	.st4{fill:#F59500;}
	.st5{fill:#F48000;}
	.st6{fill:#FFC648;}
	.st7{fill:#FFDA94;}
	.st8{opacity:0.46;fill:#F59500;}
	.st9{fill:none;stroke:#FFC648;stroke-width:1.2285;stroke-miterlimit:10;}
	.st10{fill:none;stroke:#FFC648;stroke-width:1.0975;stroke-miterlimit:10;}
	.st11{fill:#FFD773;}
	.st12{clip-path:url(#SVGID_00000150101841132236701290000007109193313409442197_);fill:#B87CCF;}
	.st13{fill:#A86300;}
	.st14{opacity:0.21;}
	.st15{fill:#CC7F05;}
	.st16{fill:#E58D61;}
	.st17{fill:#FDE3C8;}
	.st18{fill:#D39D79;}
	.st19{fill:#EDBE9A;}
	.st20{fill:#341817;}
	.st21{clip-path:url(#SVGID_00000116219104688171993010000009143869036926009767_);}
	.st22{fill:#E29524;}
	.st23{fill:#FFFFFF;}
	.st24{fill:#FFB182;}
	.st25{opacity:0.45;fill:#E58D61;}
	.st26{fill:#FEE2CA;}
	.st27{fill:#E0865A;}
	.st28{clip-path:url(#SVGID_00000150101841132236701290000007109193313409442197_);fill:#FFFFFF;}
	.st29{display:inline;fill:#FFFFFF;}
	.st30{font-family:'Poppins';}
	.st31{font-size:18.2491px;}
	.st32{display:inline;}
	.st33{font-family:'Poppins-Light';}
	.st34{font-size:19.79px;}
	.st35{font-family:'BerkshireSwash-Regular';}
	.st36{font-size:65px;}
	.st37{font-size:45px;}
</style>
<g id="BACKGROUND" class="st0">
	<rect class="st1" width="1040" height="500"/>
</g>
<g id="OBJECTS">
	<g>
		<defs>
			<rect id="SVGID_1_" width="1040" height="500"/>
		</defs>
		<clipPath id="SVGID_00000142163761657544755420000018174669993848259774_">
			<use xlink:href="#SVGID_1_"  style="overflow:visible;"/>
		</clipPath>
		
			<path style="display:none;clip-path:url(#SVGID_00000142163761657544755420000018174669993848259774_);fill:none;stroke:#FFFFFF;stroke-width:0.9776;stroke-miterlimit:10;" d="
			M326.3,400.8H169.62c-9.37,0-16.97-7.6-16.97-16.97l0,0c0-9.37,7.6-16.97,16.97-16.97H326.3c9.37,0,16.97,7.6,16.97,16.97l0,0
			C343.26,393.2,335.67,400.8,326.3,400.8z"/>
		<g style="clip-path:url(#SVGID_00000142163761657544755420000018174669993848259774_);">
			<g>
				<polygon class="st4" points="522.92,104.9 506.73,104.9 504.28,104.9 490.54,104.9 488.09,104.9 471.9,104.9 455.71,104.9 
					470.56,191.74 486.75,191.74 488.09,191.74 490.54,191.74 504.28,191.74 506.73,191.74 508.07,191.74 524.26,191.74 
					539.11,104.9 				"/>
				<polygon class="st5" points="536.27,121.5 539.11,104.9 455.71,104.9 458.55,121.5 				"/>
				<polygon class="st6" points="471.9,104.9 486.75,191.74 490.29,191.74 476.54,104.9 				"/>
				<polygon class="st6" points="455.71,104.9 470.56,191.74 474.09,191.74 460.35,104.9 				"/>
				<polygon class="st6" points="476.13,109.54 467.67,162.96 468.81,169.98 477.47,120.89 				"/>
				<polygon class="st6" points="458.03,112.21 482.79,160.3 483.91,167.31 460.31,123.4 				"/>
				<polygon class="st6" points="522.92,104.9 508.07,191.74 504.54,191.74 518.29,104.9 				"/>
				<polygon class="st6" points="539.11,104.9 524.26,191.74 520.73,191.74 534.48,104.9 				"/>
				<polygon class="st6" points="518.69,109.54 527.15,162.96 526.01,169.98 517.35,120.89 				"/>
				<polygon class="st6" points="536.79,112.21 512.03,160.3 510.92,167.31 534.51,123.4 				"/>
				<rect x="448.32" y="90.88" class="st6" width="98.18" height="18.67"/>
				<rect x="448.32" y="90.88" class="st7" width="98.18" height="5.1"/>
				<rect x="464.05" y="191.74" class="st6" width="66.72" height="12.68"/>
				<rect x="464.05" y="191.74" class="st7" width="66.72" height="3.47"/>
				<g>
					<path class="st6" d="M497.41,56.42c0,0-42.03-0.78-42.03,34.46h42.03h42.03C539.45,55.64,497.41,56.42,497.41,56.42z"/>
					<path class="st8" d="M531.77,69.34c-18.58,21.54-69.88,20.33-75.87,15.07c-0.34,2.01-0.52,4.16-0.52,6.47h42.03h42.03
						C539.45,81.27,536.32,74.34,531.77,69.34z"/>
					<circle class="st7" cx="497.41" cy="56.42" r="8.39"/>
				</g>
			</g>
			<line class="st9" x1="497.41" y1="56.42" x2="497.41" y2="-321.56"/>
		</g>
		<g style="clip-path:url(#SVGID_00000142163761657544755420000018174669993848259774_);">
			<g>
				<polygon class="st4" points="980.49,163.47 964.3,163.47 961.86,163.47 948.11,163.47 945.67,163.47 929.47,163.47 
					913.28,163.47 928.13,250.31 944.32,250.31 945.67,250.31 948.11,250.31 961.86,250.31 964.3,250.31 965.64,250.31 
					981.83,250.31 996.68,163.47 				"/>
				<polygon class="st5" points="993.84,180.07 996.68,163.47 913.28,163.47 916.12,180.07 				"/>
				<polygon class="st6" points="929.47,163.47 944.32,250.31 947.86,250.31 934.11,163.47 				"/>
				<polygon class="st6" points="913.28,163.47 928.13,250.31 931.67,250.31 917.92,163.47 				"/>
				<polygon class="st6" points="933.7,168.11 925.25,221.53 926.38,228.55 935.04,179.46 				"/>
				<polygon class="st6" points="915.6,170.78 940.36,218.87 941.48,225.88 917.88,181.97 				"/>
				<polygon class="st6" points="980.49,163.47 965.64,250.31 962.11,250.31 975.86,163.47 				"/>
				<polygon class="st6" points="996.68,163.47 981.83,250.31 978.3,250.31 992.05,163.47 				"/>
				<polygon class="st6" points="976.26,168.11 984.72,221.53 983.59,228.55 974.92,179.46 				"/>
				<polygon class="st6" points="994.36,170.78 969.61,218.87 968.49,225.88 992.08,181.97 				"/>
				<rect x="905.89" y="149.45" class="st6" width="98.18" height="18.67"/>
				<rect x="905.89" y="149.45" class="st7" width="98.18" height="5.1"/>
				<rect x="921.62" y="250.31" class="st6" width="66.72" height="12.68"/>
				<rect x="921.62" y="250.31" class="st7" width="66.72" height="3.47"/>
				<g>
					<path class="st6" d="M954.98,114.98c0,0-42.03-0.78-42.03,34.46h42.03h42.03C997.02,114.21,954.98,114.98,954.98,114.98z"/>
					<path class="st8" d="M989.34,127.91c-18.58,21.54-69.88,20.33-75.87,15.07c-0.34,2.01-0.52,4.16-0.52,6.47h42.03h42.03
						C997.02,139.84,993.89,132.91,989.34,127.91z"/>
					<circle class="st7" cx="954.98" cy="114.98" r="8.39"/>
				</g>
			</g>
			<line class="st9" x1="954.98" y1="114.98" x2="954.98" y2="-262.99"/>
		</g>
		<g style="clip-path:url(#SVGID_00000142163761657544755420000018174669993848259774_);">
			<line class="st10" x1="870.81" y1="-153.23" x2="870.81" y2="35.86"/>
			<path class="st6" d="M867.45,32.09l-4.26,13.66c-0.46,1.49-1.85,2.49-3.4,2.47l-14.31-0.17c-3.45-0.04-4.89,4.4-2.08,6.39
				l11.68,8.27c1.27,0.9,1.8,2.53,1.3,4l-4.58,13.56c-1.11,3.27,2.67,6.01,5.44,3.95l11.47-8.55c1.25-0.93,2.96-0.93,4.21,0
				l11.47,8.55c2.77,2.06,6.54-0.68,5.44-3.95l-4.58-13.56c-0.5-1.47,0.03-3.1,1.3-4l11.68-8.27c2.82-2,1.38-6.43-2.08-6.39
				l-14.31,0.17c-1.56,0.02-2.94-0.99-3.4-2.47l-4.26-13.66C873.14,28.8,868.48,28.8,867.45,32.09z"/>
			<path class="st11" d="M843.4,54.45l11.68,8.27c1.27,0.9,1.8,2.53,1.3,4l-2.08,6.16c0.22-0.12,0.44-0.24,0.66-0.36
				c10.6-6.18,19.65-14.5,26.71-24.31c-1.48-0.06-2.78-1.03-3.23-2.46l-4.26-13.66c-1.03-3.3-5.69-3.3-6.72,0l-4.26,13.66
				c-0.46,1.49-1.85,2.49-3.4,2.47l-14.31-0.17C842.03,48.02,840.59,52.45,843.4,54.45z"/>
		</g>
		<g style="clip-path:url(#SVGID_00000142163761657544755420000018174669993848259774_);">
			<line class="st10" x1="644.82" y1="-149.09" x2="644.82" y2="39.99"/>
			<path class="st6" d="M641.45,36.23l-4.26,13.66c-0.46,1.49-1.85,2.49-3.4,2.47l-14.31-0.17c-3.45-0.04-4.89,4.4-2.08,6.39
				l11.68,8.27c1.27,0.9,1.8,2.53,1.3,4l-4.58,13.56c-1.11,3.27,2.67,6.01,5.44,3.95l11.47-8.55c1.25-0.93,2.96-0.93,4.21,0
				l11.47,8.55c2.77,2.06,6.54-0.68,5.44-3.95l-4.58-13.56c-0.5-1.47,0.03-3.1,1.3-4l11.68-8.27c2.82-2,1.38-6.43-2.08-6.39
				l-14.31,0.17c-1.56,0.02-2.94-0.99-3.4-2.47l-4.26-13.66C647.15,32.93,642.48,32.93,641.45,36.23z"/>
			<path class="st11" d="M617.41,58.58l11.68,8.27c1.27,0.9,1.8,2.53,1.3,4l-2.08,6.16c0.22-0.12,0.44-0.24,0.66-0.36
				c10.6-6.18,19.65-14.5,26.71-24.31c-1.48-0.06-2.78-1.03-3.23-2.46l-4.26-13.66c-1.03-3.3-5.69-3.3-6.72,0l-4.26,13.66
				c-0.46,1.49-1.85,2.49-3.4,2.47l-14.31-0.17C616.03,52.15,614.59,56.59,617.41,58.58z"/>
		</g>
		<path style="clip-path:url(#SVGID_00000142163761657544755420000018174669993848259774_);fill:#B87CCF;" d="M566.18,458.76
			c15.86-12.62,26.04-32.08,26.04-53.93c0-38.05-30.85-68.9-68.9-68.9c-32.58,0-59.85,22.62-67.04,53
			c-5.02-2.11-10.52-3.27-16.3-3.27c-23.28,0-42.15,18.87-42.15,42.15c0,7.43,1.93,14.41,5.31,20.47
			c-5.17,3.19-10.11,6.71-14.8,10.52c-13.24-9.16-29.29-14.53-46.61-14.53c-45.32,0-82.06,36.74-82.06,82.06
			s36.74,82.06,82.06,82.06c0.02,0,0.04,0,0.06,0c17.22,58.56,71.36,101.32,135.49,101.32c77.99,0,141.22-63.23,141.22-141.22
			C618.51,524.18,598.1,484.65,566.18,458.76z"/>
		<g style="clip-path:url(#SVGID_00000142163761657544755420000018174669993848259774_);">
			<g>
				<path class="st13" d="M753.3,267.43c-1.27,7.86-10.16,6.96-10.51-1.06c-0.01-0.25-0.02-0.5-0.04-0.74
					c-1.26-24.6-10.26-48.6-25-64.35c-14.74-15.75-35.13-22.75-53.85-17.48c-10.74,3.02-20.71,9.83-29.23,18.75
					c-5.46,5.72-10.43,12.51-14.17,20.17c-5.16,10.58-15.45,14.91-24.34,9.87l0,0c-24.62-29.45,7.31-69.53,16.48-77.42
					c47.95-41.2,108.49-14.95,132.52,41.12C755.94,221.46,756.76,246.09,753.3,267.43z"/>
			</g>
			<g class="st14">
				<path class="st15" d="M672.85,160.19c8.68-0.05,16.67,3.38,24.56,7.25c3.14,1.54,6.06,3.49,8.63,5.86
					c8.75,8.08,16.11,19.16,28.8,15.98c2-0.57,3.92-1.41,5.75-2.49c-26.48-49.41-82.8-70.44-127.95-31.64
					c-1.8,1.55-4.49,4.35-7.45,8.06c18.98,12.14,41.05,1.53,62.18-2.46C669.18,160.42,671.02,160.2,672.85,160.19z"/>
			</g>
			<g>
				<path class="st16" d="M599.96,262.27c0,0-6.11,26.55-52.46,31.35c-46.35,4.8-69.41-25.17-70.04-40.11c0,0,6.54,22.99,51.63,7.44
					C574.19,245.42,599.96,262.27,599.96,262.27z"/>
				<path class="st17" d="M599.96,262.27c0,0-30.34-33.67-72.76-15.67c-42.42,18-49.74,6.92-49.74,6.92s9.28,35.57,40.35,29.44
					C548.88,276.84,577.53,257.58,599.96,262.27z"/>
			</g>
			<path class="st17" d="M849.52,441.21C740.46,441.6,720.11,378.44,717.7,340.6c-0.79-12.36,0.75-24.74,4.16-36.64
				c6.07-21.22,15.76-74.78-31.1-99.85c-59.19-31.68-94.99-8-111.98,10.88c-14.84,16.49-18.59,31.36-17.31,60.15
				c1.28,28.8-9.76,37.15-16.48,53.95c-6.72,16.8,0.12,21.24,0.12,21.24c-17.16,12.6,7.12,31.68,7.12,31.68s-0.62,0.79-1.66,2.21
				c0.19-0.02,0.38-0.03,0.57-0.02c0,0-7.12,13.5,1.23,26.72c-1.41,2.42-2.91,4.8-4.51,7.12c-13.58,19.68-22.96,36.62-29.3,51.12
				c0,0,0,0,0,0c0,0,0,0,0,0c-25.14,57.54-2.27,76.78-2.27,76.78h463.81C993.46,514.13,967.23,440.8,849.52,441.21z"/>
			<g>
				<g>
					<path class="st18" d="M542.38,336.44c-3.83,11.19,5.58,20.7,14.7,25.54c0.84,0.44,1.85,1.11,2.8,1.29
						c1.11,0.21,2.58-0.5,3.59-0.83c5.01-1.66,9.95-3.9,14.37-6.81c3.94-2.59,9.8-7.38,7.61-12.83c-0.21-0.51-0.54-0.02-0.53,0.3
						c0.21,4.26-4.03,7.61-7.19,9.77c-4.1,2.79-8.68,4.94-13.34,6.65c-1.33,0.49-2.67,0.95-4.05,1.24
						c-0.14,0.03-0.29,0.06-0.43,0.05c0.12,0.01,0.1,0.02-0.09-0.05c-0.41-0.15-0.82-0.34-1.21-0.53c-3.71-1.74-7.42-4-10.41-6.81
						c-2.02-1.89-4.07-4.14-5.12-6.72c-1.28-3.15-1.26-6.51-0.21-9.72C542.95,336.67,542.54,335.97,542.38,336.44L542.38,336.44z"/>
				</g>
			</g>
			<g>
				<g>
					<path class="st18" d="M560.49,363.42c-0.64,1.06,0.14,3.02,0.41,4.11c0.4,1.62,1.06,3.14,1.83,4.63c1.61,3.09,3.74,6,6.06,8.59
						c4.31,4.82,11.12,9.55,17.85,7.04c0.62-0.23,0.38-1.84-0.32-1.81c-3.19,0.14-6.37-0.36-9.29-1.71
						c-2.91-1.35-5.4-3.53-7.53-5.89c-2.07-2.3-3.93-4.83-5.51-7.49c-0.77-1.29-1.4-2.65-2.01-4.02c-0.34-0.75-0.55-1.53-0.78-2.32
						c-0.13-0.43-0.21-0.87-0.58-1.16C560.56,363.34,560.51,363.37,560.49,363.42L560.49,363.42z"/>
				</g>
			</g>
			<g>
				<g>
					<path class="st18" d="M555.02,379.89c-1.28,0.96-2.67,1.95-3.66,3.22c-1.08,1.38-1.95,2.82-2.63,4.44
						c-1.4,3.32-1.96,6.91-1.86,10.49c0.1,3.62,1.02,7.3,2.74,10.49c2.06,3.84,5.17,6.91,7.75,10.38c2.83,3.81,4.98,8.59,2.71,13.19
						c-0.25,0.51-0.17,2.45,0.81,2.19c7.12-1.93,13.52-5.84,18.34-11.44c4.63-5.37,7.63-12.9,8.09-19.96
						c0.01-0.08-0.1-0.19-0.13-0.07c-0.58,3.42-1.57,6.82-3.15,9.92c-1.54,3.01-3.68,5.71-5.92,8.23
						c-4.6,5.17-10.69,9.18-17.48,10.7c0.27,0.73,0.54,1.46,0.81,2.19c2.13-3.3,1.74-7.67,0.45-11.21
						c-1.49-4.07-4.31-7.29-7.01-10.6c-2.49-3.05-4.63-6.22-5.53-10.1c-0.79-3.41-0.64-7.01,0.26-10.38
						c1.03-3.88,2.94-8.03,5.66-11.01C555.4,380.37,555.28,379.69,555.02,379.89L555.02,379.89z"/>
				</g>
			</g>
			<g>
				<g>
					<path class="st18" d="M557.68,380.83c0.37-0.16,0.73-0.34,1.09-0.52c0.2-0.1,0.38-0.22,0.56-0.35
						c0.08-0.06,0.16-0.11,0.23-0.17c-0.07,0.05-0.08,0.06-0.01,0.01c0.12-0.09,0.25-0.18,0.37-0.27c0.67-0.5,1.3-1.05,1.86-1.68
						c1.24-1.41,2.63-3.28,2.31-5.27c-0.07-0.48-0.42-1.27-1.06-0.98c-0.13,0.06-0.19,0.11-0.31,0.21
						c-0.16,0.12,0.07-0.07-0.01,0.01c-0.2,0.18-0.34,0.27-0.5,0.48c-0.27,0.35-0.49,0.72-0.71,1.1c-0.21,0.36-0.42,0.71-0.65,1.05
						c-0.05,0.08-0.11,0.15-0.16,0.23c-0.07,0.1-0.14,0.19-0.02,0.04c-0.13,0.16-0.26,0.33-0.39,0.49c-1.04,1.27-2.2,2.45-3.45,3.52
						C556.12,379.3,556.6,381.31,557.68,380.83L557.68,380.83z"/>
				</g>
			</g>
			<g>
				<g>
					<path class="st18" d="M595.69,389.35c1.8,0.2,3.52,0.28,5.29-0.16c1.69-0.42,3.33-1.04,4.91-1.78
						c3.34-1.57,6.35-3.78,9.12-6.19c5.75-5,10.42-11.1,16.1-16.18c2.94-2.63,6.13-4.88,9.7-6.57c3.86-1.83,7.9-3.31,11.86-4.92
						c7.8-3.18,15.58-6.5,22.82-10.85c7.36-4.42,14-9.78,18.97-16.84c0.44-0.63-0.34-2.37-1.03-1.54
						c-10.17,12.2-24.33,19.4-38.74,25.35c-7.45,3.07-15.39,5.51-21.86,10.45c-5.92,4.52-10.58,10.41-15.85,15.63
						c-6.01,5.95-12.92,10.48-21.27,12.3C595.15,388.16,595.08,389.28,595.69,389.35L595.69,389.35z"/>
				</g>
			</g>
			<g>
				<g>
					<path class="st19" d="M553.84,311.58c3.81-6.66,6.21-14.09,7.47-21.66c1.46-8.78,0.87-17.91,0.84-26.77
						c-0.01-4.23,0.01-8.4,0.51-12.6c0.43-3.59,0.73-7.29,1.64-10.8c1.71-6.64,5.25-12.81,9.41-18.21c2.32-3.01,4.89-5.85,7.69-8.43
						c1.23-1.12,2.5-2.21,3.83-3.22c1.24-0.94,2.38-2.02,3.67-2.9c0.88-0.6,0.56-3.18-0.72-2.64c-1.16,0.48-2.39,0.94-3.44,1.65
						c-1.27,0.85-2.47,1.83-3.62,2.84c-2.49,2.19-4.79,4.61-6.91,7.17c-4.54,5.48-8.36,11.59-10.88,18.26
						c-1.23,3.25-1.85,6.55-2.31,9.98c-0.53,3.99-1.08,8.01-1.13,12.05c-0.1,9.12,0.53,18.25,0.22,27.37
						c-0.16,4.89-0.82,9.75-1.73,14.56c-0.85,4.53-1.93,9.46-4.59,13.32C553.79,311.57,553.82,311.61,553.84,311.58L553.84,311.58z"
						/>
				</g>
			</g>
			<g>
				<g>
					<path class="st18" d="M560.66,435.22c1.89-2.63,4.05-5,5.78-7.76c1.65-2.64,3.07-5.46,4.31-8.32c2.52-5.84,4.18-11.9,4.96-18.2
						c0.06-0.49-0.53-0.75-0.63-0.18c-1.01,6.06-2.72,12.11-5.1,17.77c-1.2,2.85-2.59,5.59-4.08,8.29
						c-1.57,2.83-3.13,5.89-5.26,8.35C560.62,435.2,560.64,435.25,560.66,435.22L560.66,435.22z"/>
				</g>
			</g>
			<g>
				<g>
					<path class="st18" d="M562.75,430.95c1.36-1.36,1.88-3.33,2.24-5.17c0.53-2.7,0.83-5.47,1.06-8.21
						c0.49-5.7,1.07-11.64,0.59-17.36c-0.03-0.4-0.52-0.51-0.57-0.05c-0.26,2.58-0.27,5.22-0.38,7.82
						c-0.11,2.71-0.25,5.41-0.45,8.11c-0.19,2.63-0.37,5.26-0.57,7.89c-0.18,2.46-0.08,5.05-1.95,6.93
						C562.71,430.92,562.73,430.97,562.75,430.95L562.75,430.95z"/>
				</g>
			</g>
			<ellipse class="st20" cx="643.8" cy="307.93" rx="6.69" ry="13.17"/>
			<g>
				<path class="st16" d="M686.57,271.43c0,0,5.63,26.65,51.89,32.29c46.26,5.63,69.85-23.93,70.75-38.85c0,0-6.95,22.87-51.76,6.52
					C712.64,255.04,686.57,271.43,686.57,271.43z"/>
				<path class="st17" d="M686.57,271.43c0,0,30.94-33.12,73.03-14.37c42.09,18.75,49.61,7.8,49.61,7.8s-9.91,35.4-40.87,28.72
					S709.08,267.14,686.57,271.43z"/>
			</g>
			<g>
				<defs>
					<path id="SVGID_00000036225849961766542760000002212066796320027549_" d="M828.58,298c-2.88,7.46-12.72,4.7-11.66-3.25
						c0.03-0.25,0.07-0.49,0.1-0.74c3.1-24.44-2.64-49.93-16.36-68.52c-13.72-18.59-35.42-29.75-57.49-28.52
						c-12.65,0.71-25.15,5.31-36.39,12.28c-7.21,4.47-14.06,10.1-19.67,16.84c-7.76,9.31-20.15,11.4-29.24,4.58v0
						c-22.34-34.13,21-66.81,32.79-72.63c61.6-30.41,125.01,8.14,141.8,68.31C839.99,253.37,836.4,277.75,828.58,298z"/>
				</defs>
				<clipPath id="SVGID_00000039836396377529347800000016773227646209702297_">
					<use xlink:href="#SVGID_00000036225849961766542760000002212066796320027549_"  style="overflow:visible;"/>
				</clipPath>
				<g style="clip-path:url(#SVGID_00000039836396377529347800000016773227646209702297_);">
					<path class="st15" d="M828.58,298c-2.88,7.46-12.72,4.7-11.66-3.25c0.03-0.25,0.07-0.49,0.1-0.74
						c3.1-24.44-2.64-49.93-16.36-68.52c-13.72-18.59-35.42-29.75-57.49-28.52c-12.65,0.71-25.15,5.31-36.39,12.28
						c-7.21,4.47-14.06,10.1-19.67,16.84c-7.76,9.31-20.15,11.4-29.24,4.58v0c-22.34-34.13,21-66.81,32.79-72.63
						c61.6-30.41,125.01,8.14,141.8,68.31C839.99,253.37,836.4,277.75,828.58,298z"/>
				</g>
				<g style="clip-path:url(#SVGID_00000039836396377529347800000016773227646209702297_);">
					<path class="st22" d="M690.74,157.99c3.88,9.95,13.64,17,23.99,18.73c35.19,5.03,70.37,6.28,94.25,38.96
						c4.38,7.67,14.49,13.42,23.67,11.44c-0.07-0.26-0.12-0.51-0.2-0.77C815.67,166.2,752.32,127.66,690.74,157.99z"/>
				</g>
				<g style="clip-path:url(#SVGID_00000039836396377529347800000016773227646209702297_);">
					<g>
						<path class="st13" d="M660.94,157.91c1.73,0.63,3.2,1.47,4.77,2.41c1.62,0.96,3.29,1.74,4.98,2.56
							c3.08,1.5,6.05,3.22,8.81,5.25c5.51,4.04,10.16,9.13,14.03,14.74c8,11.6,13.25,25.18,15.67,39.02
							c0.65,3.69,1.2,7.87,1.56,11.9c0.18,2.08,0.39,4.13,0.53,6.22c0.13,2.05,0.17,4.05,0.63,6.06c0.14,0.59,0.94,1.3,1.3,0.43
							c1.4-3.43,1.01-7.29,1.27-10.91c0.29-3.94-0.35-8.04-0.77-11.96c-0.85-7.9-3.11-15.79-5.81-23.24
							c-5.06-13.98-13-28.17-25.05-37.26c-3.21-2.42-6.69-4.5-10.43-5.99c-1.74-0.69-3.78-1.46-5.66-1.45
							c-1.95,0.02-3.91,0.33-5.85,0.49C660.21,156.23,660.41,157.72,660.94,157.91L660.94,157.91z"/>
					</g>
				</g>
				<g style="clip-path:url(#SVGID_00000039836396377529347800000016773227646209702297_);">
					<g>
						<path class="st13" d="M705.44,135.52c0.67,0.45,1.36,0.89,1.98,1.4c0.58,0.47,0.97,1.08,1.52,1.57
							c0.54,0.49,0.94,1.07,1.48,1.55c0.58,0.52,1.22,0.96,1.81,1.47c2.12,1.85,4.09,3.93,5.82,6.15c3.57,4.56,6.41,9.59,8.84,14.83
							c5.39,11.61,8.71,24.12,10.02,36.84c0.37,3.54,0.65,7.13,0.72,10.68c0.07,3.75-0.21,7.52-0.05,11.27
							c0.04,1.04,1.19,1.98,1.58,0.57c0.87-3.18,1.01-6.65,1.15-9.93c0.15-3.49,0.18-6.96-0.02-10.45
							c-0.4-6.95-1.48-13.85-3.15-20.61c-1.66-6.72-3.96-13.3-6.8-19.6c-2.55-5.66-5.52-11.21-9.37-16.1
							c-2.03-2.57-4.33-4.99-6.99-6.92c-1.21-0.87-2.5-1.91-3.97-2.16c-0.29-0.05-0.46-0.12-0.73-0.2
							c-0.52-0.15-0.63-0.02-1.15-0.02c-0.84,0-1.83-0.4-2.68-0.52C705.39,135.32,705.39,135.48,705.44,135.52L705.44,135.52z"/>
					</g>
				</g>
				<g style="clip-path:url(#SVGID_00000039836396377529347800000016773227646209702297_);">
					<g>
						<path class="st13" d="M757.97,134.43c1.74,2.7,3.05,5.59,4.4,8.5c1.27,2.74,2.42,5.54,3.46,8.38
							c1.98,5.41,3.39,11.1,4.26,16.8c1.89,12.52,1.12,25.26-1.1,37.68c-0.65,3.63-1.47,7.23-2.2,10.84
							c-0.76,3.79-2.18,7.45-2.81,11.26c-0.1,0.58,0.53,2.43,1.14,1.24c1.5-2.95,2.28-6.4,3.19-9.56c0.96-3.33,1.87-6.63,2.58-10.02
							c1.42-6.74,2.36-13.58,2.69-20.46c0.62-12.79-0.91-25.77-5.41-37.8c-1.16-3.09-2.52-6.13-4.19-8.99
							c-1.7-2.92-3.79-5.53-5.88-8.19C757.95,133.9,757.89,134.31,757.97,134.43L757.97,134.43z"/>
					</g>
				</g>
				<g style="clip-path:url(#SVGID_00000039836396377529347800000016773227646209702297_);">
					<g>
						<path class="st13" d="M797.06,141.2c1.9,2.69,3.21,6.05,4.34,9.13c1.15,3.12,2.22,6.25,3.13,9.44
							c1.78,6.22,2.86,12.62,3.27,19.08c0.85,13.14-1.22,26.37-5.19,38.89c-1.16,3.65-2.43,7.3-3.87,10.86
							c-1.43,3.55-3.23,6.94-4.66,10.47c-0.16,0.39,0.24,1.97,0.73,1.25c1.93-2.83,3.37-6.12,4.8-9.23c1.41-3.09,2.74-6.19,3.85-9.4
							c2.25-6.52,3.94-13.22,4.94-20.05c1.97-13.41,1.33-27.26-2.32-40.33c-0.98-3.52-2.2-6.99-3.72-10.32
							c-1.55-3.4-3.63-6.52-5.25-9.87C797.07,141.04,797.02,141.15,797.06,141.2L797.06,141.2z"/>
					</g>
				</g>
				<g style="clip-path:url(#SVGID_00000039836396377529347800000016773227646209702297_);">
					<g>
						<path class="st13" d="M849.12,195.4c0.06,23.98-12.47,46.62-30.27,62.16c-2.45,2.14-4.85,4.26-7.49,6.19
							c-2.69,1.96-5.64,3.58-8.26,5.6c-0.49,0.38-0.37,1.82,0.43,1.53c2.76-1.02,5.33-2.82,7.78-4.42c2.44-1.6,4.69-3.49,7.13-5.08
							c2.38-1.54,4.49-3.73,6.51-5.7c2.15-2.1,4.21-4.3,6.12-6.62c7.73-9.41,13.93-20.78,16.34-32.8c1.38-6.9,2.39-13.74,2.21-20.8
							C849.62,195.07,849.12,194.95,849.12,195.4L849.12,195.4z"/>
					</g>
				</g>
				<g style="clip-path:url(#SVGID_00000039836396377529347800000016773227646209702297_);">
					<g>
						<path class="st13" d="M847.84,262.38c-0.93,2.6-3.09,5.16-5.01,7.11c-1.76,1.8-3.53,3.59-5.4,5.3
							c-3.82,3.48-7.8,6.79-12.01,9.78c-8.3,5.9-17.33,10.88-26.82,14.58c-2.7,1.05-5.43,2-8.2,2.85c-2.76,0.85-5.61,1.42-8.37,2.28
							c-0.32,0.1-0.2,0.85,0.16,0.81c2.57-0.31,5.14-1.06,7.63-1.75c2.49-0.68,4.96-1.45,7.4-2.3c4.95-1.72,9.76-3.73,14.42-6.13
							c9.27-4.77,18.02-10.82,25.51-18.09c2.04-1.98,4.19-4.01,5.88-6.3c0.94-1.27,1.89-2.53,2.71-3.88
							c0.82-1.35,1.39-2.83,2.17-4.2C847.95,262.39,847.87,262.3,847.84,262.38L847.84,262.38z"/>
					</g>
				</g>
			</g>
			<path class="st17" d="M650.49,192.11c0,0,19.47,28.07,51.14,32.27l-3.84,17.96c0,0-50.55-2.24-57.27-33.6L650.49,192.11z"/>
		</g>
		<g style="clip-path:url(#SVGID_00000142163761657544755420000018174669993848259774_);">
			<g>
				<path class="st23" d="M871.07,436.29c6.56-9.93,17.91-15.76,29.42-18.82c14.42-3.83,30.53-3.72,43.47,3.7
					c12.95,7.42,21.56,23.3,17.57,37.67c-1.26,4.54-3.88,8.95-8.03,11.18c-4.16,2.23-9.98,1.65-12.82-2.11
					c-3.16-4.19-1.62-10.34,1.33-14.68c6.38-9.42,18.48-14.15,29.8-12.99c11.32,1.16,21.7,7.64,28.97,16.39
					c12.15,14.62,15.58,36.94,5.56,53.09c-2.93,4.72-7.2,8.99-12.63,10.15c-5.43,1.16-11.93-1.84-13.13-7.27
					c-0.89-4.01,1.22-8.14,4.01-11.15c8.85-9.57,24.56-10.77,36.05-4.62c11.49,6.16,18.9,18.35,21.7,31.08
					c2.81,12.73,1.52,26.02-0.94,38.83H717.66L871.07,436.29z"/>
			</g>
			<g>
				<g>
					<path class="st16" d="M736.89,329.7c0,0,1.33,21.89-33.36,36.15c-34.69,14.26-59.32-3.63-63.21-15.01
						c0,0,10.28,16.26,41.55-6.01C713.16,322.56,736.89,329.7,736.89,329.7z"/>
					<path class="st24" d="M736.89,329.7c0,0-31.09-19.08-59.74,4.47c-28.65,23.55-36.82,16.66-36.82,16.66s15.26,25.35,37.85,13.54
						C700.78,352.58,718.51,331.18,736.89,329.7z"/>
				</g>
				<g>
					<path class="st23" d="M717.95,263.7c5.19-12.82,10.99-24.91,23.59-30.62c12.6-5.71,32.62-8.57,41.91,1.67
						c3.63,4,4.67,12.26-0.64,13.23c-3.42,0.63-6.29-2.92-6.88-6.35c-1.02-6.02,2.49-12.17,7.51-15.65
						c5.02-3.48,11.28-4.7,17.38-5.03c7.41-0.4,15.08,0.45,21.6,3.99c6.52,3.54,11.68,10.14,12.07,17.55
						c0.14,2.72-0.95,6.09-3.65,6.43c-2.7,0.34-4.69-3.02-3.99-5.65c0.7-2.63,3.09-4.43,5.48-5.74c11.84-6.51,27.44-5.45,38.28,2.62
						c10.84,8.06,16.36,22.7,13.53,35.91c-0.8,3.73-2.74,7.82-6.45,8.68c-5.72,1.33-9.76-7.11-6.66-12.1
						c3.11-4.99,9.8-6.37,15.66-5.96c15.74,1.08,30.26,12.49,35.04,27.52c3.12,9.8,1.83,21.62-5.61,28.71
						c-3.33,3.17-10.31,4.13-11.31-0.36c-0.57-2.56,1.75-5.1,4.34-5.56c2.59-0.46,5.21,0.64,7.4,2.08
						c8.07,5.29,12.3,15.33,11.93,24.96c-0.37,9.64-4.87,18.79-11.16,26.1c-6.01,7-16.21,12.76-24.11,8
						c-1.4-0.84-2.67-2.05-3.18-3.6c-1.34-3.99,3.23-8.01,7.42-7.61c4.19,0.39,7.52,3.64,10,7.04c11.05,15.16,11.26,37.38,0.5,52.75
						c-2.7,3.85-6.28,7.45-10.87,8.47c-4.59,1.02-10.17-1.51-11.06-6.13c2.44-2.77,7.04-2.73,10.12-0.69
						c3.08,2.04,4.85,5.56,5.89,9.1c3.2,10.87,0.34,23.32-7.3,31.7c-3.55,3.9-8.33,7.03-13.6,7.25c-5.27,0.23-10.86-3.16-11.91-8.33
						c-0.29-1.44-0.16-3.11,0.94-4.09c2.72-2.43,6.35,1.97,6.98,5.56c2.04,11.53-0.78,23.84-7.64,33.33
						c-4.93,6.82-12.51,12.39-20.93,12.39c-8.42,0-16.9-7.29-15.99-15.66c0.29-2.71,2.3-5.77,4.99-5.33
						c2.46,0.4,3.52,3.35,3.72,5.83c0.89,11.46-6.56,22.26-16.11,28.66c-5.16,3.46-11.19,5.97-17.4,5.79
						c-6.21-0.18-12.55-3.46-15.21-9.07c-0.65-1.37-1.07-2.96-0.58-4.39c0.96-2.83,5.14-3.39,7.51-1.57
						c2.37,1.81,3.19,5.04,3.24,8.03c0.18,10.68-7.48,20.18-16.66,25.64c-8.67,5.16-19.36,7.54-29.05,4.72
						c-9.69-2.82-17.88-11.49-18.5-21.56c-0.18-2.96,0.8-6.6,3.69-7.3c3.3-0.81,5.93,2.87,6.75,6.16c2.68,10.68-3,22.69-12.68,27.93
						c-9.68,5.24-22.44,3.67-30.97-3.29c-8.53-6.96-12.64-18.72-10.95-29.6c1.66-10.67,12.15-21.43,22.14-17.34
						c1.37,0.56,2.68,1.42,3.38,2.72c1.81,3.33-1.71,7.6-5.5,7.78c-3.79,0.19-7.16-2.35-9.72-5.15
						c-10.26-11.24-12.32-29.18-4.89-42.46c2.93-5.23,10.63-9.76,14.27-5c3.03,3.96-1.63,10.09-6.61,10.05
						c-4.99-0.04-9.08-3.92-12.03-7.94c-11.46-15.66-13.38-37.76-4.78-55.16c2.05-4.16,5.17-8.4,9.74-9.19
						c4.57-0.79,9.7,4.38,7.24,8.32c-2.41,3.85-8.42,2.29-12.1-0.37c-15.19-10.96-20.15-33.87-10.86-50.13
						c2.49-4.35,6.44-8.52,11.45-8.7c5.01-0.18,9.73,6.02,6.67,9.99c-2.54,3.29-7.8,2.41-11.36,0.27
						c-8.62-5.2-13.24-15.78-12.57-25.82c0.67-10.05,6.08-19.41,13.53-26.19c6.54-5.95,15.34-10.24,24.06-8.77
						c2.75,0.46,5.59,1.63,7.04,4.01c1.46,2.38,0.81,6.1-1.8,7.1c-3.57,1.37-6.73-2.95-7.49-6.7c-2-9.86,2.42-20.73,10.73-26.4
						l-5.67-2.51l-2.37-14.38L717.95,263.7z"/>
				</g>
				<path class="st24" d="M804.9,248.85c0,0-43.63,4.08-67.96,50.83c-3.4,6.53-0.09,21.1-0.09,21.1c1.47,10-0.89,20.77-7.57,28.36
					c-5.12,5.81-13.74,13.14-11.81,20.89c0,0-10.51,8.3-7.75,21.03c2.77,12.73,16.05,17.15,16.05,17.15s1.24,14.62,16.32,14.8
					c14.94,0.18,19.78-8.71,19.78-8.71S837,412.36,863,359.79C889.01,307.23,845.02,249.4,804.9,248.85z"/>
				<path class="st25" d="M804.9,248.85c0,0-43.63,4.08-67.96,50.83c-3.4,6.53-0.09,21.1-0.09,21.1c1.03,7.02,0.17,14.43-2.75,20.84
					c1.89,0.15,3.85,0.06,5.83-0.18c9.58-1.18,18.23-6.26,24.43-13.66c0.84-1,1.67-1.95,2.5-2.78c7.54,10.05,20.11,6.28,27.65-2.51
					c0,6.28,6.28,10.05,12.57,12.57c6.28,2.51,11.31,0,17.59,0c-3.76,18.79,7.23,38.27,24.04,44.81c5.56-5.7,10.47-12.34,14.3-20.08
					C889.01,307.23,845.02,249.4,804.9,248.85z"/>
				<g>
					<path class="st23" d="M723.79,259.63c-4.13,2.63-6.94,6.92-7.65,11.76c-0.9,6.15-0.33,12.36,3.51,17.03
						c2.1,2.55,5.37,4.5,8.84,3.01c3.5-1.5,5.01-5.63,3.77-9.24c-2.15-6.24-9.39-8.03-15.4-6.87
						c-13.08,2.53-21.89,17.26-19.33,30.33c2.56,13.07,14.95,23.08,28.2,24.41c13.25,1.33,26.63-5.22,35.11-15.5
						c4.12-5,7.26-10.99,7.93-17.43c0.67-6.44-1.37-13.34-6.2-17.66c-4.76-4.26-12.94-5.59-16.86,1.27
						c-0.64,1.13-1.06,2.38-1.25,3.66c-0.75,5.31,1.9,10.16,5.45,13.85c8.67,9.03,23.37,11.57,34.57,5.99
						c11.2-5.59,18.01-18.86,16.02-31.22c-0.64-3.94-2.16-7.91-5.71-10.18c-1.26-0.81-2.74-1.28-4.24-1.26
						c-5.66,0.07-8.16,5.91-8.36,10.98c-0.28,7.14,2.42,14.18,6.59,19.98c8.59,11.92,24.39,18.82,38.61,15.13
						c14.62-3.79,25.61-19.76,21.8-34.5c-0.2-0.78-0.62-1.52-1.24-2.02c-1.93-1.56-4.13-0.01-5.6,1.54
						c-8.47,8.88-12.11,22.12-9.36,34.08c2.75,11.96,11.81,22.28,23.31,26.57c7.78,2.9,17.68,2.67,22.9-4.07
						c0.73-0.94,1.07-2.17,0.76-3.31c-0.53-1.96-2.47-2.31-4.16-2.3c-8.16,0.04-15.47,5.38-20.5,11.81
						c-9.82,12.54-12.71,31.5-2.31,44.23c1.93,2.36,4.83,3.84,7.87,3.74c8.49-0.28,8.81-11.31,3.45-15.73
						c-4.63-3.82-11.33-3.78-17.22-2.61c-16.33,3.25-30.99,14.05-38.93,28.69c-3.7,6.82-5.97,15.2-2.42,22.24
						c0.78,1.54,2.04,2.84,3.69,3.38c2.76,0.9,4.35-0.78,5.4-2.54c1.67-2.8,2.31-6.16,1.72-9.37c-1.62-8.77-9.27-13.89-17.26-15.31
						c-9.19-1.63-19.33,1.7-25.06,9.07c-5.73,7.37-6.26,18.63-0.53,26c0,0,48.91,31.56,100.37-19.33
						c51.46-50.9,9.96-125.33-6.92-140.27c-6.79-6.01-26.18-20.41-49.25-22.96c-34.3-3.8-75.57,6.32-86.32,9.96L723.79,259.63z"/>
				</g>
				<g>
					<g>
						<path class="st26" d="M774.08,426.49c-4.15-5.61-4.64-13.19-1.94-19.54c2.71-6.39,8.61-10.88,15.22-12.7
							c6.73-1.85,14-1.06,20.12,2.35c6.34,3.54,10.65,11.18,7.63,18.34c-0.73,1.72-1.94,3.79-4.01,3.98
							c-1.89,0.18-3.48-1.15-4.52-2.59c-2.38-3.31-2.46-8.05-1.71-11.9c1.41-7.23,5.72-13.89,10.55-19.32
							c4.61-5.19,10.18-9.48,16.34-12.68c6.16-3.2,12.95-5.69,19.93-6.2c5.88-0.43,13.95,1.08,15.22,7.95
							c0.45,2.42-0.17,5.16-2.15,6.76c-2.66,2.16-6.32,1.54-9.02-0.18c-6-3.82-8.35-11.94-8.6-18.68
							c-0.26-7.04,1.98-13.91,5.45-19.97c3.48-6.07,8.76-11.64,15.19-14.57c1.59-0.72,3.25-1.25,4.97-1.56
							c1.62-0.28,3.68-0.62,5.26,0c0.32,0.13,0.68,0.29,0.86,0.62c-0.17-0.32-0.04-0.04-0.17,0.25c-0.36,0.84-0.82,1.55-1.43,2.22
							c-1.14,1.24-2.53,2.23-4.03,2.99c-6.25,3.14-13.47,1.99-19.58-0.86c-6.22-2.9-11.54-7.63-15.3-13.36
							c-8.03-12.26-7.42-28.53,0.96-40.48c1.4-1.99,5.99-8.26,8.6-4.67c0.9,1.24,1.01,3.07,1.12,4.55c0.12,1.54,0.07,3.08-0.13,4.61
							c-0.81,6.36-4.22,12.19-8.72,16.67c-4.72,4.68-10.86,7.66-17.47,8.38c-6.71,0.73-13.5-0.73-19.51-3.72
							c-6.26-3.11-11.63-7.92-15.36-13.84c-3.69-5.87-6.54-14.45-3.6-21.21c1.27-2.92,3.92-5.08,7.26-4.58
							c3.67,0.55,6.2,3.59,7.26,6.98c1.95,6.22,0.85,13.13-1.98,18.9c-2.88,5.88-7.74,10.8-13.73,13.5
							c-6.05,2.73-13.12,3.09-19.5,1.39c-6.47-1.73-12.62-5.63-16.17-11.42c-1.79-2.92-2.66-6.43-1.3-9.7
							c1.33-3.19,4.24-5.15,7.7-5.16c7.09-0.03,12.34,6.58,13.52,13.06c1.33,7.34-1.98,14.7-6.38,20.41
							c-8.57,11.11-23.35,18.51-37.52,15.89c-12.12-2.24-24.24-12.19-24.83-25.18c-0.53-11.61,9.06-23.62,21.01-24.25
							c3.05-0.16,6.36,0.29,8.86,2.19c0.53,0.4,1.03,0.84,1.45,1.36c0.19,0.24,0.43,0.57,0.55,0.78c0,0,0.29,0.66,0.19,0.39
							c0.06,0.17,0.11,0.37,0.15,0.55c0,0,0.08,0.45,0.04,0.2c-0.03-0.23,0.04,0.64,0.03,0.42c0.01,0.44-0.05,0.93-0.22,1.55
							c-0.61,2.15-2.43,3.96-4.78,4.02c-3.5,0.09-6.19-3.22-7.45-6.15c-2.52-5.85-0.97-13.15,0.89-18.97
							c0.29-0.89,0.03-2.46-0.75-3.06c-0.87-0.67-1.4,0.22-1.64,0.98c-2.5,7.82-4.08,16.89-0.23,24.58c1.78,3.56,4.87,7.3,9.12,7.66
							c3.27,0.28,5.88-2.17,7.09-5.01c1.43-3.35,1.38-7.5-0.35-10.73c-1.8-3.34-5.17-5.5-8.83-6.25c-7.33-1.5-14.61,1.83-19.68,7.03
							c-5.11,5.25-8.12,12.62-8.39,19.92c-0.28,7.74,2.58,15.33,7.64,21.16c4.98,5.74,11.84,9.88,19.32,11.36
							c8.05,1.59,16.4,0.13,23.76-3.39c14.94-7.17,28.27-24.79,22.51-41.96c-1.28-3.83-3.52-7.55-6.84-9.94
							c-3.08-2.21-7.2-3.52-10.94-2.43c-3.86,1.12-6.35,4.41-7.31,8.2c-1.03,4.08-0.17,8.44,1.81,12.09
							c7.5,13.78,26.87,18.41,40.33,11.04c6.61-3.62,11.65-9.94,14.15-17.01c2.58-7.31,3.08-16.57-1.07-23.42
							c-1.97-3.26-5.72-5.88-9.68-5.28c-3.59,0.55-5.95,3.61-7.07,6.87c-2.8,8.13,0.2,17.58,4.51,24.6
							c8.13,13.23,24.78,21.78,40.27,18.12c14.44-3.42,25.42-18.14,23.62-33.06c-0.34-2.83-1.46-8.38-5.59-6.77
							c-1.89,0.74-3.13,2.57-4.39,4.05c-1.29,1.51-2.44,3.12-3.46,4.82c-4.15,6.85-6.08,15-5.51,22.99
							c1.08,15.23,12.25,29.68,27.15,33.72c6.67,1.81,16.15,2.08,20.86-4.02c2.53-3.28,1.91-8.88-2.82-9.45
							c-3.89-0.47-8.08,0.87-11.48,2.68c-7.26,3.87-12.7,10.82-16.01,18.24c-3.21,7.19-4.45,15.78-3.09,23.55
							c0.67,3.81,1.99,7.55,4.05,10.83c1.93,3.07,4.98,6.1,8.54,7.13c3.06,0.89,6.45-0.04,8.27-2.75c1.71-2.55,1.88-5.9,1.2-8.82
							c-0.77-3.29-2.76-5.99-5.67-7.7c-3.47-2.04-7.57-2.44-11.52-2.12c-7.9,0.64-15.84,3.64-22.52,7.82
							c-6.79,4.24-12.75,9.86-17.32,16.44c-4.65,6.7-8.76,15.12-7.7,23.5c0.46,3.64,1.91,7.63,5.4,9.36
							c3.75,1.86,6.39-1.98,7.45-5.11c2.61-7.73-1.41-16.11-7.94-20.45c-13.21-8.78-33.33-2.59-38.44,12.61
							c-2.35,6.98-1.35,15.24,3.24,21.1C774.1,429.03,774.55,427.12,774.08,426.49L774.08,426.49z"/>
					</g>
				</g>
				<g>
					<g>
						<path class="st27" d="M752.65,374.19c-0.67,0.62-1.3,1.15-2.18,1.44c-0.31,0.1-0.57,0.09-0.89,0.22
							c-0.96,0.4-1.81,1.06-2.66,1.63c-1.64,1.1-3.3,2.19-4.94,3.29c-3.05,2.04-6.56,4.92-10.34,5.3c-3.77,0.38-6.51-2.44-8.5-5.28
							c-2.19-3.14-3.26-6.62-4.52-10.18c-0.63-1.78-2.06-1-2.01,0.63c0.13,4.28,2.1,8.53,4.41,12.06c2.11,3.22,5.21,6.73,9.34,6.97
							c4.41,0.26,8.26-3.28,11.49-5.8c1.82-1.41,3.58-2.87,5.31-4.4c0.89-0.79,1.83-1.56,2.61-2.47c1.01-1.17,1.64-2.4,2.91-3.36
							C752.7,374.23,752.68,374.16,752.65,374.19L752.65,374.19z"/>
					</g>
				</g>
				<g>
					<g>
						<path class="st27" d="M729.55,388.67c-0.95,1.81-1.07,3.62-1.13,5.63c-0.06,2.22-0.06,4.46,0.16,6.67
							c0.39,3.86,2.54,6.79,5.52,9.16c6.26,4.99,14.49,6.61,22.33,6.65c2.05,0.01,4.09-0.12,6.12-0.43
							c2.05-0.31,4.34-0.67,6.03-1.96c0.73-0.56,0.74-2.76-0.49-2.72c-2.11,0.07-4.2,0.78-6.29,1.08c-2.13,0.31-4.27,0.43-6.41,0.4
							c-4.73-0.07-9.69-0.74-14.18-2.28c-3.95-1.36-7.96-3.94-10.04-7.67c-1.13-2.04-0.91-4.94-0.99-7.2
							c-0.1-2.51-0.01-4.87-0.59-7.33C729.59,388.66,729.57,388.64,729.55,388.67L729.55,388.67z"/>
					</g>
				</g>
				<g>
					<g>
						<path class="st27" d="M730.2,404.58c-0.08,0.06-0.17,0.12-0.25,0.17c-0.1,0.07-0.07,0.07-0.19,0.09c0.1,0.03,0.2,0.06,0.3,0.1
							c-0.01-0.01-0.02-0.02-0.03-0.03c-0.12-0.12-0.34-0.13-0.48-0.06c-0.21,0.11-0.42,0.21-0.63,0.3c0.13-0.01,0.27-0.03,0.4-0.04
							c-0.29-0.14-0.58,0.08-0.83,0.21c-0.18,0.09-0.37,0.17-0.56,0.25c0.16-0.02,0.32-0.03,0.48-0.05
							c-0.23-0.07-0.41-0.03-0.62,0.06c-0.1,0.04-0.19,0.08-0.29,0.12c-0.18,0.07-0.37,0.14-0.56,0.2c0.09-0.03,0.17-0.05,0.26-0.08
							c-0.63,0.2-1.3,0.31-1.75,0.84c-0.29,0.34-0.36,0.83-0.32,1.26c0.03,0.37,0.19,0.98,0.55,1.18c0.1,0.06,0.21,0.13,0.32,0.18
							c0.11,0.05,0.24,0.04,0.36,0.05c0.12,0.01,0.23,0.02,0.35,0.01c0.3-0.04,0.59-0.16,0.86-0.3c0.52-0.25,1.2-0.58,1.46-1.12
							c-0.12,0.14-0.24,0.28-0.36,0.41c0.47-0.38,1.14-0.84,1.26-1.47c-0.08,0.15-0.15,0.31-0.23,0.46
							c0.37-0.49,0.78-0.98,0.71-1.64c-0.01,0.15-0.02,0.31-0.03,0.47c0.02-0.07,0.06-0.12,0.12-0.24c0.06-0.11,0.12-0.22,0.17-0.34
							c0.11-0.22,0.1-0.53-0.01-0.76C730.59,404.68,730.38,404.45,730.2,404.58L730.2,404.58z"/>
					</g>
				</g>
				<g>
					<path class="st16" d="M870.82,344.53c0,0-1.33,21.89,33.36,36.15c34.69,14.26,59.32-3.63,63.21-15.01
						c0,0-10.28,16.26-41.55-6.01C894.56,337.39,870.82,344.53,870.82,344.53z"/>
					<path class="st24" d="M870.82,344.53c0,0,31.09-19.08,59.74,4.47c28.65,23.55,36.82,16.66,36.82,16.66
						s-15.26,25.35-37.85,13.54S889.21,346.01,870.82,344.53z"/>
				</g>
				<g>
					<path class="st23" d="M879.24,384.23c0.13,4.32,4.19,7.82,8.47,8.36s8.57-1.33,11.97-4c4.97-3.9,8.55-9.7,9.22-15.99
						c0.66-6.28-1.79-12.94-6.75-16.87c-1.85-1.46-4.27-2.57-6.52-1.87c-2.89,0.89-4.2,4.69-2.96,7.45s4.43,4.29,7.45,4.2
						c3.02-0.09,5.85-1.57,8.18-3.5c5.57-4.59,8.74-11.97,8.12-19.15c-0.41-4.8-2.61-9.62-6.6-12.32c-5.09-3.44-11.9-2.82-17.8-1.1
						c-10.71,3.11-20.47,9.44-27.69,17.95L879.24,384.23z"/>
				</g>
				<g>
					<g>
						<path class="st26" d="M890.83,331.36c4.56-1.46,9.64-2.5,14.39-1.33c4.67,1.15,8.08,4.62,9.51,9.17
							c2.79,8.86-1.9,19.65-10.27,23.7c-2.11,1.02-4.52,1.5-6.81,0.86c-1.85-0.51-3.92-1.82-4.36-3.82
							c-0.38-1.72,0.55-3.74,2.18-4.47c2.37-1.06,4.96,0.54,6.71,2.05c3.41,2.94,5.38,7.3,5.7,11.76c0.32,4.5-1.22,8.95-3.75,12.64
							c-3.01,4.39-7.85,8.29-13.26,9.04c-2.56,0.35-5.15-0.1-7.29-1.59c-1.95-1.35-3-3.29-3.55-5.55c-0.28-1.15-1.48-0.92-1.62,0.15
							c-0.69,5.35,4.67,9.72,9.58,10.21c5.96,0.6,11.61-2.99,15.48-7.22c7.58-8.27,9.25-21.56,1.54-30.37
							c-1.85-2.11-4.34-4.1-7.22-4.42c-2.5-0.28-4.71,1.06-5.79,3.3c-2.32,4.82,0.87,10.17,5.92,11.24
							c5.69,1.21,11.19-2.85,14.46-7.15c3.37-4.43,5.19-9.9,5.08-15.47c-0.13-6.08-2.89-12.62-8.44-15.62
							c-5.89-3.18-12.92-1.95-18.99-0.01C888.81,328.87,889.38,331.82,890.83,331.36L890.83,331.36z"/>
					</g>
				</g>
				<ellipse class="st20" cx="806.68" cy="355.23" rx="5.78" ry="11.39"/>
			</g>
			<g>
				<g>
					<path class="st26" d="M913.03,413.41c-2,6.68-5.67,14.15-11.6,18.21c-2.56,1.75-5.63,2.75-8.72,2.03
						c-2.64-0.62-5.18-2.29-5.79-5.07c-0.09,0.58-0.19,1.16-0.28,1.74c1.59-1.71,4.03-2.21,6.27-1.76c2.48,0.5,4.42,2.09,5.83,4.15
						c2.75,4.03,3.66,9.55,3.55,14.34c-0.24,10.05-5.36,20.9-14.46,25.81c-4.33,2.33-9.6,2.82-13.83,0c-1.8-1.2-3.4-3.01-3.79-5.2
						c-0.4-2.26,1.58-3.49,3.38-2.11c1.82,1.39,2.49,3.58,2.79,5.74c0.37,2.73,0.48,5.48,0.3,8.23c-0.34,5.39-1.7,10.7-4.01,15.59
						c-4.27,9.04-12.49,17.99-23.09,18.64c-4.68,0.29-9.42-1.59-12.66-5c-2.77-2.92-5.33-8.74-1.82-12.14
						c1.69-1.63,3.88-0.84,4.71,1.19c0.87,2.11,0.68,4.71,0.41,6.92c-0.62,5-2.91,9.74-5.94,13.71
						c-6.28,8.22-16.94,15.58-27.71,14.65c-4.81-0.41-9.74-2.79-12.45-6.89c-1.25-1.9-2.36-4.73,0.27-5.95
						c1.92-0.89,4.27-0.31,5.63,1.27c3.09,3.58,1.95,9.77,0.46,13.79c-1.75,4.71-4.93,8.83-8.64,12.18
						c-1.88,1.69-3.92,3.18-6.09,4.49c-0.94,0.57-0.37,3.11,0.69,2.47c5.76-3.44,10.91-8.26,14.07-14.23
						c2.88-5.44,4.62-13.01,1.77-18.82c-1.26-2.57-3.63-4.45-6.6-4.23c-2.94,0.22-4.88,2.52-4.77,5.44c0.12,3.32,2.29,6.44,4.67,8.6
						c2.4,2.19,5.48,3.67,8.64,4.35c7.35,1.59,14.88-1.14,21-5.13c5.76-3.76,10.72-8.92,13.83-15.09c1.53-3.02,2.58-6.27,3.04-9.62
						c0.43-3.1,0.5-6.61-0.78-9.53c-1.1-2.49-3.82-4.43-6.45-2.73c-2.55,1.65-3.36,4.97-3.27,7.81c0.19,6.35,4.89,11.71,10.53,14.13
						c6.22,2.67,13.25,1.12,18.8-2.42c12.23-7.79,18.32-23.27,17.9-37.36c-0.1-3.34-0.31-7.09-2.04-10.04
						c-1.2-2.05-3.65-4.8-6.31-3.56c-3.03,1.42-2.68,5.69-1.68,8.26c1.1,2.82,3.34,4.99,6.03,6.33c6.38,3.17,13.46,0.4,18.45-4.03
						c5.18-4.6,8.68-11.08,10.19-17.8c1.51-6.71,1.2-13.94-1.37-20.36c-1.23-3.06-3.21-6.09-6.15-7.73
						c-2.55-1.42-5.83-1.78-8.49-0.44c-1.41,0.71-2.67,1.75-2.28,3.45c0.31,1.38,0.99,2.71,1.94,3.77c1.92,2.15,4.71,3.31,7.56,3.45
						c7.04,0.34,12.38-6.14,15.66-11.57c1.99-3.29,3.49-6.85,4.6-10.52c0.2-0.65,0.05-1.72-0.57-2.12
						C913.73,412.3,913.21,412.79,913.03,413.41L913.03,413.41z"/>
				</g>
			</g>
		</g>
		<g style="clip-path:url(#SVGID_00000142163761657544755420000018174669993848259774_);">
			<circle class="st23" cx="596.64" cy="116.18" r="2.97"/>
			<circle class="st23" cx="573.35" cy="145.64" r="2.02"/>
			<path class="st23" d="M585.11,78.99c0,1.84-1.49,3.33-3.33,3.33c-1.84,0-3.33-1.49-3.33-3.33c0-1.84,1.49-3.33,3.33-3.33
				C583.62,75.66,585.11,77.15,585.11,78.99z"/>
			<path class="st23" d="M493.86,220.38c0,2.49-2.02,4.51-4.51,4.51s-4.51-2.02-4.51-4.51c0-2.49,2.02-4.51,4.51-4.51
				S493.86,217.88,493.86,220.38z"/>
			<circle class="st23" cx="484.12" cy="320.65" r="3.09"/>
			<path class="st23" d="M469.63,293.56c0,0.92-0.74,1.66-1.66,1.66c-0.92,0-1.66-0.74-1.66-1.66c0-0.92,0.74-1.66,1.66-1.66
				C468.88,291.9,469.63,292.65,469.63,293.56z"/>
			<path class="st23" d="M729.94,111.84c0,2.66-2.15,4.81-4.81,4.81c-2.66,0-4.81-2.15-4.81-4.81s2.15-4.81,4.81-4.81
				C727.79,107.03,729.94,109.18,729.94,111.84z"/>
			<path class="st23" d="M717.47,55.7c0,0.79-0.64,1.43-1.43,1.43c-0.79,0-1.43-0.64-1.43-1.43s0.64-1.43,1.43-1.43
				C716.83,54.28,717.47,54.92,717.47,55.7z"/>
			<path class="st23" d="M704.64,86.42c0,2.26-1.84,4.1-4.1,4.1c-2.26,0-4.1-1.84-4.1-4.1c0-2.26,1.84-4.1,4.1-4.1
				C702.8,82.32,704.64,84.15,704.64,86.42z"/>
			<path class="st23" d="M798.38,108.63c0,0.89-0.72,1.6-1.6,1.6c-0.89,0-1.6-0.72-1.6-1.6c0-0.89,0.72-1.6,1.6-1.6
				C797.66,107.03,798.38,107.75,798.38,108.63z"/>
			<path class="st23" d="M795.65,77.33c0,0.92-0.74,1.66-1.66,1.66s-1.66-0.74-1.66-1.66c0-0.92,0.74-1.66,1.66-1.66
				S795.65,76.41,795.65,77.33z"/>
			<path class="st23" d="M865.98,134.83c0,3.02-2.45,5.47-5.47,5.47c-3.02,0-5.47-2.45-5.47-5.47s2.45-5.47,5.47-5.47
				C863.54,129.37,865.98,131.81,865.98,134.83z"/>
			<path class="st23" d="M899.84,114.69c0,0.82-0.66,1.49-1.49,1.49s-1.49-0.66-1.49-1.49c0-0.82,0.67-1.49,1.49-1.49
				S899.84,113.87,899.84,114.69z"/>
			<path class="st23" d="M881.19,183.78c0,1.18-0.96,2.14-2.14,2.14c-1.18,0-2.14-0.96-2.14-2.14c0-1.18,0.96-2.14,2.14-2.14
				C880.23,181.64,881.19,182.6,881.19,183.78z"/>
			<path class="st23" d="M934.3,78.93c0,0.89-0.72,1.6-1.6,1.6c-0.89,0-1.6-0.72-1.6-1.6c0-0.89,0.72-1.6,1.6-1.6
				C933.58,77.33,934.3,78.04,934.3,78.93z"/>
			<path class="st23" d="M936.88,301.12c0,1.16-0.94,2.09-2.09,2.09c-1.16,0-2.09-0.94-2.09-2.09c0-1.16,0.94-2.09,2.09-2.09
				C935.95,299.03,936.88,299.97,936.88,301.12z"/>
			<path class="st23" d="M963.79,299.22c0,2.21-1.79,3.99-3.99,3.99c-2.21,0-4-1.79-4-3.99c0-2.21,1.79-4,4-4
				C962.01,295.23,963.79,297.02,963.79,299.22z"/>
			<path class="st23" d="M963.79,337.02c0,1.1-0.89,2-2,2c-1.1,0-2-0.89-2-2c0-1.1,0.89-2,2-2
				C962.9,335.02,963.79,335.92,963.79,337.02z"/>
		</g>
		<path style="clip-path:url(#SVGID_00000142163761657544755420000018174669993848259774_);fill:#FFFFFF;" d="M748.12,75.9
			c0,0.79-0.64,1.43-1.43,1.43s-1.43-0.64-1.43-1.43s0.64-1.43,1.43-1.43S748.12,75.11,748.12,75.9z"/>
		<path style="clip-path:url(#SVGID_00000142163761657544755420000018174669993848259774_);fill:#FFFFFF;" d="M755.67,106.88
			c0,0.97-0.78,1.75-1.75,1.75c-0.97,0-1.75-0.78-1.75-1.75c0-0.97,0.78-1.75,1.75-1.75C754.88,105.13,755.67,105.91,755.67,106.88z
			"/>
		
			<circle style="clip-path:url(#SVGID_00000142163761657544755420000018174669993848259774_);fill:#FFFFFF;" cx="698.49" cy="116.74" r="2.05"/>
		<path style="clip-path:url(#SVGID_00000142163761657544755420000018174669993848259774_);fill:#FFFFFF;" d="M831.29,154.55
			c0,0.79-0.64,1.43-1.43,1.43c-0.79,0-1.43-0.64-1.43-1.43c0-0.79,0.64-1.43,1.43-1.43C830.65,153.13,831.29,153.77,831.29,154.55z
			"/>
		<path style="clip-path:url(#SVGID_00000142163761657544755420000018174669993848259774_);fill:#FFFFFF;" d="M558.02,189.49
			c0,0.66-0.53,1.19-1.19,1.19c-0.66,0-1.19-0.53-1.19-1.19c0-0.66,0.53-1.19,1.19-1.19C557.49,188.3,558.02,188.83,558.02,189.49z"
			/>
		<path style="clip-path:url(#SVGID_00000142163761657544755420000018174669993848259774_);fill:#FFFFFF;" d="M982.3,323.21
			c0,1.41-1.14,2.55-2.55,2.55c-1.41,0-2.55-1.14-2.55-2.55c0-1.41,1.14-2.55,2.55-2.55C981.16,320.65,982.3,321.8,982.3,323.21z"/>
		<path style="clip-path:url(#SVGID_00000142163761657544755420000018174669993848259774_);fill:#FFFFFF;" d="M882.02,107.68
			c0,1.41-1.14,2.55-2.55,2.55c-1.41,0-2.55-1.14-2.55-2.55c0-1.41,1.14-2.55,2.55-2.55C880.88,105.13,882.02,106.27,882.02,107.68z
			"/>
	</g>
</g>
<g id="TEXTS" class="st0">
	<text transform="matrix(1 0 0 1 206.8254 391.2075)" class="st29 st30 st31">Read more</text>
	<g class="st32">
		<text transform="matrix(1 0 0 1 130.5266 313.7505)"><tspan x="0" y="0" class="st23 st33 st34">Lorem ipsum dolor sit amet,  </tspan><tspan x="-14.37" y="23.75" class="st23 st33 st34">consectetuer adipiscing elit, sed</tspan></text>
	</g>
	<text transform="matrix(1 0 0 1 93.9101 214.4263)" class="st29 st35 st36">Eid al-Adha</text>
	<text transform="matrix(1 0 0 1 161.0039 273.9216)" class="st29 st35 st37">Mubarak</text>
</g>
</svg>
